<?xml version="1.0" standalone="no"?>
<!DOCTYPE svg PUBLIC "-//W3C//DTD SVG 20010904//EN"
 "http://www.w3.org/TR/2001/REC-SVG-20010904/DTD/svg10.dtd">
<svg version="1.0" xmlns="http://www.w3.org/2000/svg"
 width="256.000000pt" height="256.000000pt" viewBox="0 0 256.000000 256.000000"
 preserveAspectRatio="xMidYMid meet">
<metadata>
Created by potrace 1.14, written by Peter Selinger 2001-2017
</metadata>
<g transform="translate(0.000000,256.000000) scale(0.100000,-0.100000)"
fill="#000000" stroke="none">
<path d="M0 2427 l0 -123 37 -2 c39 -3 53 -15 53 -44 0 -15 -7 -17 -45 -11
-36 4 -45 3 -45 -9 0 -10 8 -13 28 -10 18 2 37 -4 55 -18 37 -30 35 -50 -5
-50 -73 0 -78 -5 -78 -80 0 -63 2 -71 30 -99 17 -17 44 -38 60 -48 35 -21 43
-36 27 -57 -11 -14 -15 -14 -40 -2 -15 8 -27 10 -27 5 0 -5 7 -12 15 -15 8 -3
17 -14 20 -25 4 -10 13 -19 21 -19 29 0 10 -35 -19 -36 -21 -1 -36 8 -57 35
-17 20 -30 29 -30 21 0 -8 11 -28 24 -43 14 -16 22 -36 19 -45 -4 -13 -3 -14
5 -3 11 16 17 8 27 -39 4 -19 16 -47 27 -62 11 -16 17 -32 13 -38 -9 -15 -54
-8 -48 7 3 7 0 13 -6 13 -8 0 -9 5 -1 19 7 14 7 22 0 26 -6 4 -10 3 -9 -2 4
-21 -2 -34 -13 -27 -6 4 -8 3 -4 -4 3 -5 3 -12 -1 -15 -5 -2 -2 -2 5 -1 6 2
12 -5 12 -16 0 -12 -9 -22 -23 -25 -19 -5 -24 -14 -25 -48 -2 -37 0 -43 25
-54 114 -49 154 -68 219 -109 41 -26 79 -55 85 -65 7 -14 4 -37 -11 -85 -11
-37 -26 -118 -32 -180 l-12 -114 -138 -97 -138 -98 2 -50 c3 -48 4 -49 36 -50
18 0 36 -5 40 -11 4 -6 15 -13 25 -17 13 -5 17 -18 17 -52 0 -25 4 -45 10 -45
5 0 23 -21 40 -48 16 -26 30 -40 30 -32 0 8 -9 29 -19 47 -16 26 -17 32 -5 37
7 3 13 0 11 -6 -1 -6 4 -13 11 -15 7 -3 11 1 10 7 -2 7 4 15 12 17 9 3 11 1 5
-4 -15 -12 -18 -43 -5 -58 7 -8 9 -19 5 -25 -4 -6 -3 -9 2 -8 4 2 8 -1 8 -7 0
-5 -9 -9 -19 -7 -39 5 25 -48 65 -54 37 -6 55 -26 42 -46 -3 -7 -1 -8 5 -4 7
4 17 -3 24 -18 6 -14 20 -26 30 -26 10 0 26 -9 35 -20 10 -11 25 -20 34 -20
16 0 43 -23 35 -31 -2 -2 7 -5 21 -6 18 -1 22 2 14 10 -6 6 -11 19 -11 29 0
11 -7 18 -17 17 -11 0 -13 -3 -5 -6 6 -2 12 -9 12 -15 0 -6 -9 -3 -20 7 -11
10 -20 23 -20 29 0 6 4 4 10 -4 8 -12 10 -12 15 3 4 9 0 23 -9 32 -21 21 -20
26 1 18 15 -5 14 -3 -2 10 -11 8 -23 13 -26 11 -4 -2 -5 5 -2 16 3 13 0 20 -8
20 -11 0 -11 2 1 10 12 7 12 10 1 10 -9 0 -11 8 -7 26 5 20 4 25 -7 21 -9 -3
-13 2 -11 16 1 12 3 23 4 25 15 17 -12 58 -31 47 -11 -7 -8 -1 20 54 7 12 8
20 3 17 -10 -6 -24 29 -14 38 9 9 9 75 0 70 -4 -3 -8 1 -8 10 0 8 -6 17 -12
19 -10 4 -10 6 0 6 7 1 11 5 8 9 -3 5 1 9 8 9 8 0 12 -6 9 -13 -2 -6 0 -15 6
-19 7 -4 9 6 6 31 -3 29 -2 35 7 26 7 -7 17 -12 22 -12 6 0 0 7 -12 16 -21 14
-22 41 -1 29 5 -4 6 2 2 12 -5 14 -4 16 8 7 8 -5 24 -9 37 -8 15 1 22 -4 22
-17 0 -10 5 -21 10 -24 6 -4 8 -10 5 -15 -3 -5 -1 -11 4 -14 10 -7 9 9 -3 36
-8 18 -1 38 15 38 5 0 9 -5 9 -11 0 -5 -4 -7 -10 -4 -17 10 -11 -5 10 -27 11
-12 20 -30 20 -39 0 -13 6 -17 23 -13 21 3 24 0 22 -24 -1 -18 3 -29 11 -29 7
0 10 5 7 11 -4 6 1 5 10 -3 14 -11 17 -11 17 0 0 11 2 11 9 0 6 -9 6 -22 1
-32 -13 -22 -3 -30 26 -19 15 6 24 6 24 0 0 -6 11 -15 25 -20 18 -7 23 -14 18
-26 -5 -14 -3 -16 11 -11 13 5 17 3 13 -7 -4 -11 -1 -13 10 -9 12 5 15 2 10
-10 -6 -16 6 -22 39 -18 5 0 19 -7 30 -18 12 -10 35 -22 52 -26 18 -3 32 -11
32 -16 0 -6 4 -8 9 -5 5 3 24 -23 42 -59 19 -36 37 -65 41 -65 10 0 -3 33 -16
42 -6 5 -2 8 9 8 12 0 27 -6 34 -12 11 -11 11 -9 1 12 -12 23 -12 24 3 11 14
-11 17 -11 18 0 0 8 4 4 10 -9 10 -26 31 -21 22 6 -5 12 1 10 23 -8 15 -14 22
-17 14 -7 -13 18 -11 18 36 12 27 -4 51 -9 53 -11 1 -1 14 1 27 6 15 6 26 6
30 -1 4 -6 11 -6 20 2 8 6 23 9 35 6 14 -4 23 1 29 16 5 12 9 17 9 12 1 -18
58 -17 65 1 3 8 10 13 15 9 5 -3 12 -1 15 4 3 5 15 7 26 4 12 -3 20 0 20 7 0
7 6 10 14 7 8 -3 17 1 20 10 4 9 13 13 22 9 8 -3 13 -2 10 3 -3 5 1 12 10 15
8 3 12 2 9 -4 -3 -6 1 -7 9 -4 9 3 14 9 11 13 -4 8 43 39 59 39 5 0 12 5 15
11 4 6 50 55 103 110 53 55 126 145 163 200 37 56 71 101 75 101 4 0 10 14 14
31 6 29 27 59 42 59 5 0 3 -5 -4 -12 -7 -7 -12 -20 -12 -31 0 -12 -4 -16 -12
-11 -10 6 -10 5 -1 -8 7 -8 10 -18 6 -22 -4 -4 -8 -22 -9 -39 -1 -18 -4 -41
-7 -52 -3 -11 -6 -25 -6 -32 -1 -6 -8 -19 -17 -28 -9 -8 -14 -22 -11 -29 3 -8
3 -17 -1 -20 -3 -4 -7 -12 -8 -19 -9 -41 -14 -58 -24 -76 -6 -12 -7 -21 -3
-21 4 0 2 -5 -5 -12 -7 -7 -12 -21 -12 -33 0 -11 -7 -31 -16 -43 -8 -12 -12
-22 -8 -22 4 0 0 -8 -8 -17 -9 -10 -18 -35 -21 -55 -3 -20 -12 -44 -21 -53 -9
-9 -14 -20 -11 -25 3 -5 1 -11 -4 -15 -6 -3 -8 -12 -4 -20 3 -8 0 -15 -6 -15
-6 0 -11 -7 -11 -15 0 -8 -4 -15 -10 -15 -5 0 -10 -7 -10 -15 0 -8 -6 -15 -12
-15 -9 0 -8 -4 2 -10 8 -5 11 -10 5 -10 -14 0 -34 -46 -25 -59 5 -8 15 -8 38
2 18 7 29 17 25 22 -5 5 6 -1 24 -13 17 -12 34 -22 37 -22 6 0 31 -21 123
-104 23 -21 41 -42 38 -46 -3 -4 5 -10 16 -13 12 -3 18 -10 14 -16 -3 -7 2
-11 14 -11 12 0 21 2 21 5 0 2 -21 28 -46 56 -49 56 -104 104 -196 170 l-56
42 25 56 c103 232 232 655 253 831 12 94 26 150 39 150 10 0 140 154 180 213
18 27 66 118 107 202 71 147 74 156 74 226 0 81 -7 88 -15 13 -3 -30 -11 -54
-22 -63 -13 -9 -14 -15 -5 -18 24 -9 0 -23 -41 -23 -34 0 -48 6 -80 38 -31 28
-36 31 -23 11 12 -19 14 -33 8 -50 -6 -15 -5 -49 1 -88 9 -55 8 -68 -8 -97
-10 -18 -22 -31 -26 -28 -5 3 1 18 12 33 12 17 19 38 17 52 l-4 24 -11 -25
c-14 -33 -41 -56 -77 -64 -28 -7 -28 -6 -23 23 3 16 17 40 31 54 31 31 57 80
48 93 -4 5 -14 9 -22 9 -8 0 -15 8 -15 17 0 9 -3 20 -7 23 -3 4 -4 22 -1 41 3
19 2 34 -3 34 -5 0 -10 -19 -11 -43 -5 -78 -35 -218 -63 -290 -25 -64 -26 -74
-13 -89 8 -9 13 -20 10 -25 -3 -5 -8 -29 -12 -53 -7 -51 -67 -259 -91 -317 -9
-21 -21 -49 -27 -63 -6 -14 -11 -27 -11 -31 -3 -17 -70 -139 -77 -139 -5 0 -9
-6 -9 -13 0 -21 -127 -187 -184 -240 -177 -165 -430 -245 -637 -202 -70 15
-194 58 -214 75 -7 6 -31 20 -53 33 -159 87 -353 311 -468 539 -41 82 -86 189
-81 194 1 1 28 -21 59 -49 35 -31 67 -72 81 -102 43 -91 77 -160 96 -193 43
-76 126 -174 179 -214 31 -24 76 -62 99 -85 50 -50 46 -29 -11 60 -20 31 -36
58 -36 61 0 21 -174 265 -236 332 -57 61 -79 87 -65 79 9 -5 12 -4 7 3 -4 7
-13 12 -19 12 -7 0 -24 13 -39 29 -21 22 -24 31 -15 40 9 10 8 11 -5 6 -13 -5
-18 -2 -18 10 0 9 -4 14 -8 11 -5 -3 -9 1 -9 9 0 17 46 13 57 -5 5 -8 10 -9
14 -1 5 7 13 7 24 2 9 -5 24 -12 32 -14 8 -2 20 -6 25 -8 6 -1 16 -8 23 -16 7
-7 19 -16 26 -20 6 -5 28 -28 47 -53 18 -25 37 -47 40 -50 4 -3 19 -25 35 -50
16 -25 37 -54 46 -65 20 -23 135 -180 170 -231 33 -49 44 -42 13 9 -18 31 -25
58 -25 93 0 46 2 50 30 61 26 10 37 8 84 -16 42 -21 59 -25 76 -17 16 7 24 6
31 -5 7 -11 9 -11 9 0 0 10 8 12 30 8 16 -4 32 -2 36 4 4 7 10 7 18 0 9 -8 19
-5 35 10 30 29 81 47 116 43 97 -11 142 -11 166 2 36 18 47 46 16 39 -42 -9
-62 -8 -90 3 -34 14 -44 15 -49 3 -1 -4 -14 -12 -27 -16 -16 -5 -21 -4 -17 4
14 22 -60 10 -109 -18 l-49 -28 -46 19 c-42 18 -60 33 -60 51 0 5 4 6 9 3 4
-3 17 4 27 17 l19 22 -22 -19 c-21 -18 -23 -18 -29 -1 -6 14 -15 16 -50 11
-24 -3 -60 -15 -81 -26 -45 -24 -86 -26 -103 -5 -7 8 -18 15 -25 15 -19 0 -25
24 -25 98 0 103 -13 138 -62 163 -23 12 -59 27 -81 35 -36 13 -43 12 -71 -4
-18 -10 -44 -22 -60 -26 -32 -8 -13 -26 -215 204 -169 192 -185 249 -104 377
26 40 48 72 50 70 1 -2 -1 -17 -6 -33 -5 -17 -4 -39 2 -54 9 -23 10 -23 15 -5
9 40 27 34 57 -20 72 -127 170 -193 298 -203 74 -5 156 17 243 65 52 29 154
128 154 149 0 7 16 29 37 49 20 19 31 35 24 35 -7 0 -10 4 -7 9 4 5 0 12 -6
14 -10 4 -10 6 0 6 6 1 12 6 12 12 0 6 -9 8 -20 4 -18 -6 -20 -2 -20 30 0 48
-54 149 -95 181 -44 34 -95 32 -162 -6 -30 -17 -75 -39 -102 -50 -56 -22 -181
-34 -231 -22 -61 15 -108 -11 -146 -81 -8 -16 -18 -26 -22 -23 -3 4 4 19 16
35 20 27 42 94 44 131 0 8 4 20 8 25 4 6 4 19 0 30 -6 17 -11 12 -31 -30 -12
-27 -27 -53 -31 -56 -5 -3 -10 -16 -11 -27 -1 -12 -7 -22 -14 -22 -7 0 -13 -8
-13 -18 0 -22 -56 -81 -73 -78 -29 6 -46 19 -40 29 4 6 0 8 -10 4 -16 -6 -23
8 -18 36 1 4 -6 21 -14 37 -8 16 -15 38 -15 48 0 10 -7 33 -16 50 -14 29 -14
34 0 54 14 20 14 24 -1 40 -16 18 -16 18 3 12 18 -7 18 -6 -2 17 -12 13 -21
31 -22 39 0 8 -2 27 -5 43 -4 17 -1 27 6 27 8 0 9 3 1 8 -6 4 -10 23 -10 42 1
32 -2 35 -29 37 -16 1 -22 -1 -12 -4 18 -5 18 -5 0 -20 -16 -13 -16 -14 0 -9
13 4 17 0 17 -19 0 -14 -5 -25 -11 -25 -5 0 -7 5 -4 10 3 6 1 10 -4 10 -6 0
-11 -4 -11 -10 0 -5 -5 -10 -11 -10 -6 0 -9 7 -5 15 3 8 1 15 -5 15 -12 0 -8
32 6 42 6 4 2 8 -7 8 -16 0 -18 -12 -18 -123z m65 22 c-3 -4 -12 -6 -20 -3 -8
4 -13 10 -10 15 3 4 12 6 20 3 8 -4 13 -10 10 -15z m10 -29 c3 -6 -1 -7 -9 -4
-18 7 -21 14 -7 14 6 0 13 -4 16 -10z m-10 -309 c-10 -31 14 -74 71 -128 72
-69 86 -102 67 -158 -12 -37 -12 -48 0 -84 8 -22 13 -41 12 -41 -13 0 -95 41
-95 47 0 4 15 19 34 33 27 20 32 30 30 55 -8 74 -24 99 -94 145 -72 47 -92
104 -48 134 29 20 31 20 23 -3z m68 -33 c8 -24 18 -54 22 -68 6 -23 3 -22 -29
12 -25 26 -36 47 -36 68 0 44 25 37 43 -12z m2370 -275 c-3 -10 -21 -40 -40
-66 -18 -26 -47 -82 -64 -125 -41 -103 -50 -112 -113 -111 -44 0 -48 2 -31 12
35 21 116 111 132 147 8 19 23 59 32 89 13 44 21 55 41 58 13 2 26 6 29 8 11
11 20 4 14 -12z m-2278 -123 c-3 -5 -11 -10 -16 -10 -6 0 -7 5 -4 10 3 6 11
10 16 10 6 0 7 -4 4 -10z m23 -38 c2 -7 -2 -10 -12 -6 -9 3 -16 11 -16 16 0
13 23 5 28 -10z m-177 -59 c-10 -4 -10 -7 -1 -13 18 -11 -2 -18 -30 -10 l-25
7 25 11 c14 6 30 11 35 11 6 -1 4 -3 -4 -6z m59 -4 c12 -9 12 -10 -4 -5 -11 4
-23 1 -28 -6 -6 -10 -8 -8 -8 5 0 19 18 22 40 6z m-80 -40 c0 -5 4 -8 9 -4 5
3 12 1 15 -4 4 -6 -7 -8 -24 -6 -17 2 -28 0 -25 -5 3 -5 1 -11 -4 -14 -11 -7
-9 13 2 32 10 15 27 16 27 1z m360 -645 c0 -21 -17 -17 -23 5 -3 14 -1 18 9
14 8 -3 14 -11 14 -19z m60 -39 c-7 -8 -17 -15 -22 -15 -11 0 14 29 26 30 5 0
3 -7 -4 -15z m-50 -29 c0 -6 -8 -20 -17 -31 -11 -14 -14 -15 -10 -3 8 22 -3
30 -22 15 -14 -11 -14 -10 -2 6 7 9 10 17 5 17 -5 0 -3 4 5 9 17 11 41 3 41
-13z m75 14 c-3 -5 -12 -10 -18 -10 -7 0 -6 4 3 10 19 12 23 12 15 0z m91 -87
c-10 -10 -19 5 -10 18 6 11 8 11 12 0 2 -7 1 -15 -2 -18z m-192 -88 c-4 -8 -8
-15 -10 -15 -2 0 -4 7 -4 15 0 8 4 15 10 15 5 0 7 -7 4 -15z m-247 -87 c-3 -8
-6 -5 -6 6 -1 11 2 17 5 13 3 -3 4 -12 1 -19z m246 10 c2 -7 0 -22 -5 -33 -8
-18 -8 -18 -4 3 3 15 -1 22 -11 22 -8 0 -11 5 -8 10 9 14 22 13 28 -2z m-226
-53 c0 -8 -6 -15 -14 -15 -7 0 -13 7 -13 15 0 8 6 15 13 15 8 0 14 -7 14 -15z
m83 -44 c0 -6 -4 -13 -10 -16 -5 -3 -10 1 -10 9 0 9 5 16 10 16 6 0 10 -4 10
-9z m14 -83 c-5 -8 -2 -9 9 -5 18 7 20 -13 2 -25 -16 -12 -37 12 -24 28 14 17
23 18 13 2z"/>
<path d="M390 831 c0 -5 5 -13 10 -16 6 -3 10 -2 10 4 0 5 -4 13 -10 16 -5 3
-10 2 -10 -4z"/>
<path d="M1776 2506 c23 -42 60 -73 47 -40 -3 7 -8 14 -12 14 -4 0 -15 16 -24
35 -9 19 -21 35 -26 35 -5 0 1 -20 15 -44z"/>
<path d="M1851 2533 c20 -26 42 -46 67 -60 38 -22 38 -14 0 12 -21 14 -42 34
-48 45 -6 11 -16 20 -22 20 -6 0 -5 -6 3 -17z"/>
<path d="M1975 2540 c3 -5 8 -10 11 -10 2 0 4 5 4 10 0 6 -5 10 -11 10 -5 0
-7 -4 -4 -10z"/>
<path d="M2060 2545 c0 -14 33 -54 41 -49 5 3 6 -1 3 -9 -6 -15 82 -78 107
-76 8 0 -1 7 -19 15 -30 13 -51 39 -40 49 2 2 26 1 54 -3 27 -5 60 -5 74 -1
21 6 19 7 -13 8 -56 1 -142 29 -162 51 -17 18 -45 27 -45 15z m80 -70 c0 -9
-6 -12 -16 -8 -13 5 -13 7 -2 14 17 11 18 11 18 -6z"/>
<path d="M1984 2508 c-4 -6 -3 -8 4 -4 6 3 17 -1 25 -9 17 -17 31 -20 22 -5
-12 19 -43 31 -51 18z"/>
<path d="M2545 2510 c-3 -5 -1 -10 4 -10 6 0 11 5 11 10 0 6 -2 10 -4 10 -3 0
-8 -4 -11 -10z"/>
<path d="M2427 2482 c-40 -42 -110 -74 -155 -71 -21 2 -43 -1 -50 -5 -7 -4
-26 -4 -43 -1 -21 5 -29 4 -25 -3 6 -11 54 -24 93 -26 13 -1 28 -8 35 -15 11
-11 10 -12 -2 -6 -13 7 -13 6 -2 -7 10 -13 17 -47 21 -105 1 -7 4 -12 9 -12 4
1 10 0 15 -1 4 -1 12 -4 17 -5 6 -1 13 -4 18 -5 4 -1 14 -3 22 -4 8 0 16 -11
18 -23 2 -13 7 -23 12 -23 5 0 7 -8 4 -17 -3 -10 2 -5 11 10 11 18 22 27 31
23 11 -4 14 -1 9 13 -4 12 0 23 10 28 12 7 14 15 7 34 -18 47 10 66 43 29 12
-13 21 -44 25 -88 6 -58 7 -51 8 58 1 69 -2 121 -6 115 -25 -34 -114 -47 -164
-23 -26 13 -39 61 -13 52 7 -3 16 0 21 7 4 8 3 10 -4 5 -7 -4 -12 -3 -12 3 0
5 9 13 20 16 11 3 20 11 20 18 0 6 10 21 22 34 12 13 19 23 17 23 -3 0 -17
-13 -32 -28z"/>
<path d="M2315 2490 c-3 -5 -2 -10 4 -10 5 0 13 5 16 10 3 6 2 10 -4 10 -5 0
-13 -4 -16 -10z"/>
<path d="M2498 2493 c7 -3 16 -2 19 1 4 3 -2 6 -13 5 -11 0 -14 -3 -6 -6z"/>
<path d="M2449 2427 c5 -5 21 -7 37 -5 27 3 26 4 -8 9 -22 3 -34 1 -29 -4z"/>
<path d="M2475 2210 c3 -5 8 -10 11 -10 2 0 4 5 4 10 0 6 -5 10 -11 10 -5 0
-7 -4 -4 -10z"/>
<path d="M150 2175 c0 -5 5 -17 10 -25 5 -8 10 -10 10 -5 0 6 -5 17 -10 25 -5
8 -10 11 -10 5z"/>
<path d="M1560 2095 c-7 -9 -19 -14 -27 -11 -7 3 -13 0 -13 -5 0 -7 -9 -9 -21
-6 -12 3 -18 3 -15 0 3 -3 -10 -23 -29 -45 -23 -25 -35 -48 -35 -68 0 -34 -19
-80 -33 -80 -6 0 -7 -3 -4 -6 4 -4 14 -1 22 6 13 11 16 11 13 0 -2 -7 8 -19
22 -26 21 -12 25 -11 28 1 3 12 8 13 23 5 11 -6 25 -8 31 -4 8 5 9 2 5 -10 -5
-13 -3 -17 7 -13 8 3 22 -1 33 -9 10 -9 11 -12 3 -8 -9 4 -12 3 -7 -2 10 -10
13 -11 68 -13 22 0 38 -5 35 -9 -6 -11 188 -8 229 2 39 11 163 93 176 118 14
26 1 22 -39 -13 -20 -18 -61 -44 -92 -58 -49 -23 -67 -26 -165 -26 -83 0 -122
5 -157 18 -62 24 -62 39 -1 21 62 -19 196 -18 264 2 30 9 75 28 100 44 25 15
60 31 77 35 18 3 37 16 44 28 6 12 22 30 35 41 13 10 22 24 19 31 -3 9 2 11
17 8 18 -5 20 -3 9 8 -9 10 -17 11 -30 3 -21 -12 -55 -6 -46 8 4 7 2 8 -5 4
-6 -4 -19 -2 -28 6 -12 9 -15 9 -9 1 4 -7 2 -13 -3 -13 -6 0 -11 5 -11 10 0 6
-5 10 -11 10 -5 0 -7 -5 -3 -12 5 -7 3 -8 -5 -3 -7 4 -101 8 -209 9 -167 2
-201 5 -223 19 -24 16 -27 16 -39 2z m377 -50 c33 -8 64 -23 77 -36 l22 -24
-215 0 c-239 0 -257 -4 -331 -69 -21 -19 -27 -22 -15 -8 11 13 20 29 20 36 0
32 48 69 136 105 34 14 240 11 306 -4z m-69 -87 c23 -1 42 -6 42 -11 0 -4 4
-6 9 -3 18 11 4 -27 -14 -40 -10 -8 -15 -14 -9 -14 5 -1 -6 -7 -25 -15 -34
-15 -181 -21 -194 -8 -4 3 -19 8 -34 9 -14 2 -30 9 -34 16 -9 15 19 50 33 42
5 -3 16 2 23 12 8 11 15 14 15 9 0 -6 9 -11 20 -12 11 -1 18 2 15 7 -6 10 37
17 80 13 17 -2 49 -4 73 -5z"/>
<path d="M1442 2084 c-12 -8 -22 -12 -22 -8 0 4 -9 -5 -21 -20 -11 -14 -26
-26 -33 -26 -6 0 -13 -10 -14 -22 -1 -13 -4 -38 -6 -56 -3 -20 2 -38 11 -48
18 -17 38 -14 38 7 0 8 4 20 9 27 4 7 3 18 -2 25 -11 15 5 80 18 72 6 -4 7 1
3 11 -5 13 -3 15 7 9 9 -6 11 -4 6 4 -5 8 0 14 13 18 12 3 21 9 21 14 0 12 -2
12 -28 -7z"/>
<path d="M2487 2046 c-67 -73 -73 -98 -31 -140 33 -32 56 -35 26 -3 -27 29
-28 74 -1 107 69 87 73 109 6 36z"/>
<path d="M30 1930 c6 -11 12 -20 14 -20 2 0 2 9 -1 20 -3 11 -9 20 -15 20 -5
0 -4 -9 2 -20z"/>
<path d="M1116 1815 c-9 -13 -26 -34 -38 -46 l-23 -22 27 7 c23 5 26 4 21 -11
-3 -10 -3 -15 1 -12 7 7 37 109 31 109 -1 0 -10 -11 -19 -25z"/>
<path d="M389 1724 c6 -12 25 -35 42 -50 33 -30 49 -48 96 -101 27 -29 30 -30
53 -17 l25 14 -27 -6 c-22 -5 -29 -1 -42 23 -8 16 -41 52 -73 79 -32 27 -64
56 -71 64 -11 13 -12 12 -3 -6z"/>
<path d="M1085 1660 c-3 -5 -1 -10 4 -10 6 0 11 5 11 10 0 6 -2 10 -4 10 -3 0
-8 -4 -11 -10z"/>
<path d="M90 1624 c0 -8 5 -12 10 -9 6 4 8 11 5 16 -9 14 -15 11 -15 -7z"/>
<path d="M1095 1586 c0 -28 10 -26 18 4 3 11 0 20 -6 20 -7 0 -12 -11 -12 -24z"/>
<path d="M811 1414 c0 -5 22 -27 49 -49 27 -22 49 -43 49 -47 2 -14 40 -47 45
-39 5 7 -26 39 -117 120 -15 14 -27 20 -26 15z"/>
<path d="M1005 1390 c-10 -11 -19 -39 -21 -67 l-3 -48 12 45 c7 25 18 55 25
68 16 27 11 28 -13 2z"/>
<path d="M1442 1274 c-7 -8 -32 -14 -56 -14 -32 0 -48 -6 -66 -25 -49 -53
-139 -54 -184 -4 -20 22 -35 29 -64 29 l-37 -1 28 -15 c15 -8 27 -19 27 -24 0
-17 -30 -11 -61 11 -33 23 -38 13 -11 -21 13 -16 30 -23 59 -24 23 -1 48 -8
57 -15 8 -7 20 -10 26 -6 5 3 10 -1 10 -9 0 -8 10 -27 23 -42 19 -22 29 -26
50 -20 17 4 29 15 33 31 3 13 12 29 20 36 8 6 11 16 7 22 -3 5 -1 7 4 4 18
-11 118 39 137 68 19 30 18 41 -2 19z"/>
<path d="M955 1240 c3 -5 8 -10 11 -10 2 0 4 5 4 10 0 6 -5 10 -11 10 -5 0 -7
-4 -4 -10z"/>
<path d="M1400 1055 c0 -8 29 -12 39 -5 9 5 4 8 -13 8 -14 0 -26 -2 -26 -3z"/>
<path d="M250 940 c0 -5 5 -10 11 -10 5 0 7 5 4 10 -3 6 -8 10 -11 10 -2 0 -4
-4 -4 -10z"/>
<path d="M1195 863 c-36 -6 -66 -30 -59 -48 7 -16 165 -16 176 0 5 6 8 5 8 -2
0 -9 7 -10 23 -4 12 4 32 7 44 6 12 -1 21 3 20 9 -3 17 -160 46 -212 39z"/>
<path d="M465 749 c-4 -6 -5 -12 -2 -15 2 -3 7 2 10 11 7 17 1 20 -8 4z"/>
<path d="M86 585 c-3 -8 -1 -15 4 -15 6 0 10 7 10 15 0 8 -2 15 -4 15 -2 0 -6
-7 -10 -15z"/>
<path d="M891 477 c2 -1 11 -8 21 -15 12 -10 18 -10 24 -1 4 7 3 9 -4 5 -6 -3
-13 -2 -17 4 -3 5 -11 10 -17 10 -6 0 -9 -1 -7 -3z"/>
<path d="M428 453 c7 -3 16 -2 19 1 4 3 -2 6 -13 5 -11 0 -14 -3 -6 -6z"/>
<path d="M2310 249 c-63 -24 -75 -98 -23 -139 32 -25 63 -25 95 0 26 20 44 60
27 60 -5 0 -9 -6 -9 -12 0 -23 -16 -38 -48 -47 -43 -13 -82 17 -82 63 0 79
105 91 133 16 4 -10 6 -9 6 6 2 40 -54 70 -99 53z"/>
<path d="M520 209 c0 -5 5 -7 10 -4 6 3 10 8 10 11 0 2 -4 4 -10 4 -5 0 -10
-5 -10 -11z"/>
<path d="M536 171 c-3 -5 1 -11 9 -15 9 -3 15 0 15 9 0 16 -16 20 -24 6z"/>
<path d="M578 158 c9 -9 9 -15 -1 -27 -11 -14 -10 -14 6 -2 15 12 19 12 31 -5
8 -10 13 -21 11 -24 -2 -3 5 -6 15 -6 10 0 17 4 14 7 -2 4 17 6 43 4 l48 -4
-42 12 c-23 7 -45 15 -49 20 -4 4 -12 7 -18 7 -6 0 -4 -5 4 -10 12 -7 12 -10
1 -10 -7 0 -22 11 -33 25 -11 14 -25 25 -31 25 -8 0 -8 -3 1 -12z"/>
<path d="M2420 110 c0 -5 5 -10 10 -10 6 0 10 5 10 10 0 6 -4 10 -10 10 -5 0
-10 -4 -10 -10z"/>
<path d="M2545 10 c-3 -5 -1 -10 4 -10 6 0 11 5 11 10 0 6 -2 10 -4 10 -3 0
-8 -4 -11 -10z"/>
</g>
</svg>
